<?xml version="1.0" standalone="no"?>
<!DOCTYPE svg PUBLIC "-//W3C//DTD SVG 20010904//EN"
 "http://www.w3.org/TR/2001/REC-SVG-20010904/DTD/svg10.dtd">
<svg version="1.0" xmlns="http://www.w3.org/2000/svg"
 width="731.000000pt" height="731.000000pt" viewBox="0 0 731.000000 731.000000"
 preserveAspectRatio="xMidYMid meet">
<metadata>
Created by potrace 1.11, written by Peter Selinger 2001-2013
</metadata>
<g transform="translate(0.000000,731.000000) scale(0.100000,-0.100000)"
fill="#000000" stroke="none">
<path d="M2777 6469 c-172 -40 -316 -183 -362 -360 -13 -50 -15 -207 -2 -254
64 -239 276 -389 525 -372 251 17 451 223 461 475 11 280 -228 525 -510 521
-41 -1 -91 -5 -112 -10z"/>
<path d="M4887 6445 c-179 -49 -330 -207 -368 -385 -11 -50 -8 -174 5 -229 15
-68 77 -172 134 -228 105 -104 232 -150 381 -140 136 10 239 56 330 149 195
199 186 524 -20 718 -116 109 -308 157 -462 115z"/>
<path d="M4390 5109 c-102 -38 -203 -76 -226 -84 -23 -8 -57 -22 -78 -30 l-36
-15 0 -788 0 -787 103 -63 c304 -189 317 -198 322 -242 3 -19 7 -46 10 -60 3
-14 7 -43 11 -65 5 -36 28 -189 39 -255 2 -14 11 -65 19 -115 8 -49 18 -110
21 -135 6 -45 21 -143 29 -190 3 -14 10 -61 16 -105 6 -44 13 -92 16 -107 5
-33 -9 -43 -196 -138 -196 -100 -214 -110 -230 -120 -8 -5 -58 -35 -110 -66
-86 -52 -271 -192 -287 -217 -7 -11 -3 -9 61 31 79 49 285 152 411 205 217 91
569 199 725 222 24 4 47 8 50 10 3 2 26 6 50 10 25 3 52 8 60 10 8 2 39 7 69
10 30 4 61 8 70 10 9 1 48 6 86 10 39 4 84 9 100 11 168 19 554 24 905 10 225
-9 295 -11 595 -21 239 -8 239 -8 248 45 3 14 12 52 20 85 17 64 47 205 47
218 0 5 -75 6 -167 3 -93 -4 -235 -8 -318 -11 -82 -3 -198 -7 -257 -10 l-108
-5 0 449 0 449 -34 21 c-18 12 -39 21 -46 21 -7 0 -72 -29 -144 -65 -154 -77
-251 -104 -351 -100 -112 5 -171 24 -341 106 -67 33 -124 59 -128 59 -3 0 -24
-8 -46 -17 l-40 -18 0 -482 c0 -379 3 -483 13 -484 6 -1 56 -1 111 0 54 0 96
-2 93 -5 -9 -10 -202 -54 -235 -54 l-32 0 2 527 3 526 59 33 c32 18 67 31 77
29 11 -2 48 -20 83 -39 111 -61 183 -96 198 -96 20 0 122 66 112 72 -5 3 -27
11 -49 18 -168 54 -276 186 -290 356 -11 132 29 248 120 343 101 106 248 151
378 116 l27 -7 -2 428 -3 428 -260 98 c-143 54 -263 97 -267 95 -4 -1 -91 -83
-195 -182 -103 -99 -202 -194 -220 -211 l-33 -31 -216 211 c-119 116 -219 212
-222 213 -4 1 -90 -29 -192 -68z"/>
<path d="M2409 5115 c-3 -2 -36 -6 -74 -9 -75 -5 -115 -16 -131 -37 -6 -8 -17
-50 -23 -94 -7 -44 -17 -100 -21 -125 -5 -25 -12 -65 -16 -90 -3 -24 -7 -47
-9 -50 -2 -3 -6 -23 -9 -45 -11 -70 -16 -99 -21 -125 -3 -14 -7 -38 -10 -55
-2 -16 -16 -96 -30 -177 -14 -81 -25 -155 -25 -165 0 -11 17 -28 41 -41 96
-55 146 -118 194 -246 32 -85 24 -77 191 -206 95 -74 119 -125 86 -186 -15
-29 -63 -52 -100 -49 -29 2 -47 14 -167 107 -22 18 -23 17 -50 -20 -66 -88
-172 -155 -275 -174 -44 -7 -60 -14 -61 -27 0 -9 -2 -25 -4 -36 -2 -11 -7 -41
-10 -67 l-6 -48 48 6 c116 13 237 56 317 111 26 19 52 31 56 26 5 -4 31 -75
60 -158 28 -82 76 -220 106 -305 66 -189 63 -176 39 -172 -42 8 -37 -2 -145
332 -35 107 -67 205 -71 217 l-8 23 -48 -28 c-114 -67 -204 -93 -332 -97 -126
-4 -250 33 -352 106 -17 12 -32 20 -33 18 -2 -2 -14 -32 -26 -67 -13 -35 -31
-74 -42 -87 l-18 -23 -112 29 c-62 16 -121 31 -132 33 -12 2 -64 16 -116 30
-52 13 -192 50 -310 80 -118 30 -251 64 -295 76 -141 39 -136 41 -130 -62 5
-98 14 -112 77 -125 102 -20 963 -195 978 -198 8 -2 53 -13 100 -24 47 -12 93
-23 102 -26 177 -42 462 -135 623 -203 253 -106 536 -263 715 -397 30 -23 115
-83 188 -133 74 -51 186 -136 250 -190 193 -161 230 -190 202 -157 -14 16 -75
81 -137 145 -165 171 -193 207 -194 255 -7 208 6 275 62 339 53 61 137 100
289 136 69 17 180 48 248 70 67 22 129 40 137 40 7 0 16 4 19 9 5 7 -10 114
-29 221 -4 21 -54 319 -70 415 -6 37 -16 93 -21 120 -2 11 -17 101 -34 200
-26 154 -54 315 -75 430 -5 29 -19 116 -30 180 -3 17 -9 55 -15 85 -8 45 -37
214 -76 459 -3 18 -7 41 -9 50 -1 9 -6 39 -9 66 -4 28 -11 56 -14 63 -7 10
-49 18 -189 37 -18 3 -61 8 -97 11 -65 6 -67 6 -113 -31 -51 -40 -189 -178
-260 -260 -24 -27 -45 -47 -47 -44 -357 351 -342 339 -428 339 -35 0 -67 -2
-69 -5z"/>
<path d="M1797 4080 c-170 -43 -277 -194 -264 -374 9 -134 80 -242 195 -298
61 -30 75 -33 162 -33 85 0 101 3 155 29 82 40 139 97 178 175 29 60 32 73 32
161 -1 84 -4 101 -29 149 -36 70 -107 138 -176 169 -62 27 -187 38 -253 22z"/>
<path d="M5775 4076 c-64 -20 -107 -45 -153 -90 -72 -69 -102 -155 -99 -280 2
-69 7 -92 35 -148 140 -284 543 -273 680 20 23 49 27 70 27 147 0 76 -4 99
-26 146 -48 101 -150 183 -261 209 -58 13 -154 11 -203 -4z"/>
<path d="M1450 3743 c-14 -10 -29 -21 -35 -25 -200 -154 -224 -189 -173 -253
34 -43 71 -32 193 60 22 17 42 33 43 38 2 4 10 7 18 7 8 0 14 1 14 3 0 1 -7
35 -15 75 -9 40 -13 76 -11 81 3 4 1 12 -3 19 -5 9 -13 7 -31 -5z"/>
<path d="M2309 3701 c-1 -6 -2 -14 -4 -18 -20 -76 -18 -84 21 -125 52 -54 113
-98 136 -98 24 0 58 35 58 60 0 32 -208 210 -211 181z"/>
<path d="M230 2795 c0 -80 3 -146 8 -146 12 -2 44 -6 117 -13 39 -4 81 -9 95
-11 14 -2 57 -6 95 -10 39 -3 81 -8 95 -10 14 -2 57 -6 95 -10 39 -3 84 -8
100 -10 71 -9 128 -16 182 -20 32 -3 65 -7 73 -10 8 -2 44 -7 80 -10 36 -4 74
-9 85 -11 11 -2 40 -7 65 -10 25 -3 54 -8 65 -10 10 -2 37 -6 60 -9 22 -3 76
-13 120 -21 44 -9 91 -17 105 -20 14 -2 49 -9 77 -15 29 -6 55 -11 58 -11 2 0
80 -20 172 -44 92 -24 177 -46 187 -49 228 -58 703 -260 911 -385 28 -17 57
-33 65 -37 20 -9 181 -114 295 -192 l90 -62 -90 87 c-254 246 -581 455 -980
625 -77 33 -149 64 -160 69 -30 13 -230 85 -319 115 -80 26 -434 130 -477 139
-13 3 -42 10 -64 16 -51 13 -337 78 -372 85 -15 2 -49 9 -77 15 -77 16 -90 18
-236 45 -74 14 -153 27 -175 31 -22 3 -92 14 -155 25 -63 10 -132 19 -152 19
l-38 0 0 -145z"/>
<path d="M4 2378 c3 -13 12 -54 20 -93 16 -75 20 -95 31 -165 13 -90 -11 -82
238 -75 122 3 285 7 362 10 732 24 1020 24 1145 0 8 -2 44 -6 80 -10 36 -3 76
-8 90 -10 14 -2 45 -7 70 -10 43 -6 251 -41 298 -50 12 -3 34 -8 50 -11 335
-67 788 -241 1039 -397 65 -40 67 -41 59 -29 -4 7 -57 48 -119 93 -345 249
-723 436 -1117 552 -168 50 -425 106 -555 122 -27 3 -57 8 -65 10 -8 2 -46 6
-85 10 -38 3 -86 8 -105 10 -19 2 -80 7 -135 10 -55 3 -131 8 -170 10 -38 2
-122 7 -185 10 -63 3 -140 8 -170 10 -61 4 -318 13 -598 20 l-182 5 4 -22z"/>
<path d="M919 1886 c-2 -2 -49 -6 -104 -10 -55 -3 -109 -8 -120 -10 -11 -2
-45 -7 -76 -10 -59 -7 -72 -9 -154 -26 -27 -6 -60 -12 -71 -14 -88 -17 -362
-128 -377 -153 -3 -5 18 -45 46 -91 146 -233 445 -697 462 -719 l20 -25 25 20
c84 66 383 183 550 216 14 3 34 7 45 9 11 2 36 7 55 11 19 3 46 8 60 11 13 3
42 7 65 10 22 4 51 8 65 10 196 28 380 39 695 39 244 0 376 -5 505 -19 358
-41 650 -119 896 -240 72 -36 135 -65 141 -65 6 0 71 29 144 64 74 35 190 82
259 104 120 38 356 96 430 106 19 2 64 9 100 15 64 10 89 13 240 28 94 9 572
9 700 0 110 -8 190 -16 241 -23 20 -2 59 -7 85 -9 112 -11 307 -45 409 -72 33
-8 70 -17 82 -19 90 -17 320 -118 390 -171 20 -16 38 -23 40 -18 2 6 71 114
153 240 82 127 163 253 180 280 17 28 68 109 115 180 73 112 82 132 69 142
-38 28 -325 121 -440 142 -33 6 -69 13 -80 15 -33 7 -84 14 -149 22 -33 3 -68
8 -78 10 -150 27 -1006 27 -1192 -1 -16 -2 -73 -9 -125 -15 -138 -16 -221 -29
-397 -64 -156 -31 -415 -119 -583 -197 -114 -54 -360 -198 -360 -211 0 -4 -6
-8 -14 -8 -8 0 -16 -3 -18 -7 -1 -5 -37 -33 -78 -64 -41 -31 -84 -66 -96 -77
-20 -19 -21 -19 -45 0 -305 241 -593 397 -921 498 -120 37 -357 91 -458 104
-25 3 -54 8 -65 10 -11 2 -49 7 -85 11 -36 3 -76 8 -90 10 -14 2 -61 7 -105
10 -44 4 -100 10 -125 12 -51 6 -855 14 -861 9z"/>
</g>
</svg>
